<mxfile host="www.draw.io" modified="2019-11-11T06:45:40.278Z" agent="Mozilla/5.0 (Windows NT 10.0; Win64; x64) AppleWebKit/537.36 (KHTML, like Gecko) Chrome/77.0.3865.120 Safari/537.36" etag="qJQwqWEeAyvyrYhLDPkm" version="12.2.3" type="github" pages="4">
  <diagram id="CWwAkL2fOihtjybC1bDE" name="Task 2-1">
    <mxGraphModel dx="2011" dy="1069" grid="1" gridSize="10" guides="1" tooltips="1" connect="1" arrows="1" fold="1" page="1" pageScale="1" pageWidth="827" pageHeight="1169" math="0" shadow="0">
      <root>
        <mxCell id="0"/>
        <mxCell id="1" parent="0"/>
        <mxCell id="OtLc_l3Oetv-ATF042nH-23" value="" style="edgeStyle=orthogonalEdgeStyle;rounded=0;orthogonalLoop=1;jettySize=auto;html=1;" parent="1" source="OtLc_l3Oetv-ATF042nH-1" target="OtLc_l3Oetv-ATF042nH-9" edge="1">
          <mxGeometry relative="1" as="geometry"/>
        </mxCell>
        <mxCell id="OtLc_l3Oetv-ATF042nH-1" value="Начало" style="ellipse;whiteSpace=wrap;html=1;" parent="1" vertex="1">
          <mxGeometry x="690" y="209" width="120" height="80" as="geometry"/>
        </mxCell>
        <mxCell id="OtLc_l3Oetv-ATF042nH-25" value="" style="edgeStyle=orthogonalEdgeStyle;rounded=0;orthogonalLoop=1;jettySize=auto;html=1;" parent="1" source="OtLc_l3Oetv-ATF042nH-3" target="OtLc_l3Oetv-ATF042nH-5" edge="1">
          <mxGeometry relative="1" as="geometry"/>
        </mxCell>
        <mxCell id="OtLc_l3Oetv-ATF042nH-3" value="ввод&lt;br&gt;число 1&lt;br&gt;знак операции" style="shape=parallelogram;perimeter=parallelogramPerimeter;whiteSpace=wrap;html=1;" parent="1" vertex="1">
          <mxGeometry x="369.5" y="334" width="120" height="60" as="geometry"/>
        </mxCell>
        <mxCell id="OtLc_l3Oetv-ATF042nH-26" value="" style="edgeStyle=orthogonalEdgeStyle;rounded=0;orthogonalLoop=1;jettySize=auto;html=1;" parent="1" source="OtLc_l3Oetv-ATF042nH-5" target="OtLc_l3Oetv-ATF042nH-10" edge="1">
          <mxGeometry relative="1" as="geometry"/>
        </mxCell>
        <mxCell id="OtLc_l3Oetv-ATF042nH-63" value="" style="edgeStyle=orthogonalEdgeStyle;rounded=0;orthogonalLoop=1;jettySize=auto;html=1;" parent="1" source="OtLc_l3Oetv-ATF042nH-5" edge="1">
          <mxGeometry relative="1" as="geometry">
            <mxPoint x="604.4999999999995" y="438" as="targetPoint"/>
          </mxGeometry>
        </mxCell>
        <mxCell id="OtLc_l3Oetv-ATF042nH-5" value="знак операции != 0" style="rhombus;whiteSpace=wrap;html=1;" parent="1" vertex="1">
          <mxGeometry x="334.5" y="408" width="190" height="80" as="geometry"/>
        </mxCell>
        <mxCell id="OtLc_l3Oetv-ATF042nH-30" value="" style="edgeStyle=orthogonalEdgeStyle;rounded=0;orthogonalLoop=1;jettySize=auto;html=1;" parent="1" source="OtLc_l3Oetv-ATF042nH-6" target="OtLc_l3Oetv-ATF042nH-8" edge="1">
          <mxGeometry relative="1" as="geometry"/>
        </mxCell>
        <mxCell id="OtLc_l3Oetv-ATF042nH-6" value="ввод&lt;br&gt;число 2&lt;br&gt;" style="shape=parallelogram;perimeter=parallelogramPerimeter;whiteSpace=wrap;html=1;" parent="1" vertex="1">
          <mxGeometry x="248.5" y="588" width="120" height="60" as="geometry"/>
        </mxCell>
        <mxCell id="OtLc_l3Oetv-ATF042nH-44" style="edgeStyle=orthogonalEdgeStyle;rounded=0;orthogonalLoop=1;jettySize=auto;html=1;" parent="1" source="OtLc_l3Oetv-ATF042nH-7" edge="1">
          <mxGeometry relative="1" as="geometry">
            <mxPoint x="428.5" y="300" as="targetPoint"/>
            <Array as="points">
              <mxPoint x="666.5" y="1159"/>
              <mxPoint x="26.5" y="1159"/>
              <mxPoint x="26.5" y="300"/>
              <mxPoint x="376.5" y="300"/>
            </Array>
          </mxGeometry>
        </mxCell>
        <mxCell id="OtLc_l3Oetv-ATF042nH-7" value="Вывод &lt;br&gt;введите корректный знак операции" style="shape=parallelogram;perimeter=parallelogramPerimeter;whiteSpace=wrap;html=1;" parent="1" vertex="1">
          <mxGeometry x="566.5" y="998" width="200" height="60" as="geometry"/>
        </mxCell>
        <mxCell id="OtLc_l3Oetv-ATF042nH-31" value="" style="edgeStyle=orthogonalEdgeStyle;rounded=0;orthogonalLoop=1;jettySize=auto;html=1;" parent="1" source="OtLc_l3Oetv-ATF042nH-8" target="OtLc_l3Oetv-ATF042nH-18" edge="1">
          <mxGeometry relative="1" as="geometry"/>
        </mxCell>
        <mxCell id="OtLc_l3Oetv-ATF042nH-32" value="" style="edgeStyle=orthogonalEdgeStyle;rounded=0;orthogonalLoop=1;jettySize=auto;html=1;" parent="1" source="OtLc_l3Oetv-ATF042nH-8" target="OtLc_l3Oetv-ATF042nH-15" edge="1">
          <mxGeometry relative="1" as="geometry"/>
        </mxCell>
        <mxCell id="OtLc_l3Oetv-ATF042nH-8" value="знак = &#39;+&#39;" style="rhombus;whiteSpace=wrap;html=1;" parent="1" vertex="1">
          <mxGeometry x="254.5" y="673" width="108" height="80" as="geometry"/>
        </mxCell>
        <mxCell id="OtLc_l3Oetv-ATF042nH-24" value="" style="edgeStyle=orthogonalEdgeStyle;rounded=0;orthogonalLoop=1;jettySize=auto;html=1;" parent="1" source="OtLc_l3Oetv-ATF042nH-9" target="OtLc_l3Oetv-ATF042nH-3" edge="1">
          <mxGeometry relative="1" as="geometry"/>
        </mxCell>
        <mxCell id="OtLc_l3Oetv-ATF042nH-9" value="операции = &#39;+-*/&#39;" style="rounded=0;whiteSpace=wrap;html=1;" parent="1" vertex="1">
          <mxGeometry x="508.5" y="219" width="120" height="60" as="geometry"/>
        </mxCell>
        <mxCell id="OtLc_l3Oetv-ATF042nH-29" style="edgeStyle=orthogonalEdgeStyle;rounded=0;orthogonalLoop=1;jettySize=auto;html=1;entryX=0.5;entryY=0;entryDx=0;entryDy=0;" parent="1" source="OtLc_l3Oetv-ATF042nH-10" target="OtLc_l3Oetv-ATF042nH-6" edge="1">
          <mxGeometry relative="1" as="geometry">
            <Array as="points">
              <mxPoint x="308.5" y="559"/>
            </Array>
          </mxGeometry>
        </mxCell>
        <mxCell id="OtLc_l3Oetv-ATF042nH-41" style="edgeStyle=orthogonalEdgeStyle;rounded=0;orthogonalLoop=1;jettySize=auto;html=1;entryX=0.5;entryY=0;entryDx=0;entryDy=0;" parent="1" source="OtLc_l3Oetv-ATF042nH-10" target="OtLc_l3Oetv-ATF042nH-7" edge="1">
          <mxGeometry relative="1" as="geometry">
            <Array as="points">
              <mxPoint x="666.5" y="558"/>
            </Array>
          </mxGeometry>
        </mxCell>
        <mxCell id="OtLc_l3Oetv-ATF042nH-10" value="знак операции in операции" style="rhombus;whiteSpace=wrap;html=1;" parent="1" vertex="1">
          <mxGeometry x="361" y="520" width="137" height="80" as="geometry"/>
        </mxCell>
        <mxCell id="OtLc_l3Oetv-ATF042nH-11" value="да" style="text;html=1;strokeColor=none;fillColor=none;align=center;verticalAlign=middle;whiteSpace=wrap;rounded=0;" parent="1" vertex="1">
          <mxGeometry x="326.5" y="528" width="40" height="20" as="geometry"/>
        </mxCell>
        <mxCell id="OtLc_l3Oetv-ATF042nH-12" value="нет" style="text;html=1;strokeColor=none;fillColor=none;align=center;verticalAlign=middle;whiteSpace=wrap;rounded=0;" parent="1" vertex="1">
          <mxGeometry x="484.5" y="523" width="40" height="20" as="geometry"/>
        </mxCell>
        <mxCell id="OtLc_l3Oetv-ATF042nH-13" value="да" style="text;html=1;strokeColor=none;fillColor=none;align=center;verticalAlign=middle;whiteSpace=wrap;rounded=0;" parent="1" vertex="1">
          <mxGeometry x="366.5" y="478" width="40" height="20" as="geometry"/>
        </mxCell>
        <mxCell id="OtLc_l3Oetv-ATF042nH-14" value="нет" style="text;html=1;strokeColor=none;fillColor=none;align=center;verticalAlign=middle;whiteSpace=wrap;rounded=0;" parent="1" vertex="1">
          <mxGeometry x="508.5" y="384" width="40" height="20" as="geometry"/>
        </mxCell>
        <mxCell id="OtLc_l3Oetv-ATF042nH-33" value="" style="edgeStyle=orthogonalEdgeStyle;rounded=0;orthogonalLoop=1;jettySize=auto;html=1;" parent="1" source="OtLc_l3Oetv-ATF042nH-15" target="OtLc_l3Oetv-ATF042nH-19" edge="1">
          <mxGeometry relative="1" as="geometry"/>
        </mxCell>
        <mxCell id="OtLc_l3Oetv-ATF042nH-34" value="" style="edgeStyle=orthogonalEdgeStyle;rounded=0;orthogonalLoop=1;jettySize=auto;html=1;" parent="1" source="OtLc_l3Oetv-ATF042nH-15" target="OtLc_l3Oetv-ATF042nH-16" edge="1">
          <mxGeometry relative="1" as="geometry"/>
        </mxCell>
        <mxCell id="OtLc_l3Oetv-ATF042nH-15" value="знак = &#39;-&#39;" style="rhombus;whiteSpace=wrap;html=1;" parent="1" vertex="1">
          <mxGeometry x="254.5" y="778" width="108" height="80" as="geometry"/>
        </mxCell>
        <mxCell id="OtLc_l3Oetv-ATF042nH-35" value="" style="edgeStyle=orthogonalEdgeStyle;rounded=0;orthogonalLoop=1;jettySize=auto;html=1;" parent="1" source="OtLc_l3Oetv-ATF042nH-16" target="OtLc_l3Oetv-ATF042nH-17" edge="1">
          <mxGeometry relative="1" as="geometry"/>
        </mxCell>
        <mxCell id="OtLc_l3Oetv-ATF042nH-37" value="" style="edgeStyle=orthogonalEdgeStyle;rounded=0;orthogonalLoop=1;jettySize=auto;html=1;entryX=0.922;entryY=0.425;entryDx=0;entryDy=0;entryPerimeter=0;" parent="1" edge="1">
          <mxGeometry relative="1" as="geometry">
            <mxPoint x="159.1279069767442" y="918.3720930232558" as="targetPoint"/>
            <Array as="points">
              <mxPoint x="228.5" y="918"/>
            </Array>
            <mxPoint x="255.00232558139538" y="918.3720930232558" as="sourcePoint"/>
          </mxGeometry>
        </mxCell>
        <mxCell id="OtLc_l3Oetv-ATF042nH-16" value="знак = &#39;*&#39;" style="rhombus;whiteSpace=wrap;html=1;" parent="1" vertex="1">
          <mxGeometry x="254.5" y="878" width="108" height="80" as="geometry"/>
        </mxCell>
        <mxCell id="OtLc_l3Oetv-ATF042nH-39" value="" style="edgeStyle=orthogonalEdgeStyle;rounded=0;orthogonalLoop=1;jettySize=auto;html=1;entryX=1;entryY=0.5;entryDx=0;entryDy=0;" parent="1" source="OtLc_l3Oetv-ATF042nH-17" target="OtLc_l3Oetv-ATF042nH-21" edge="1">
          <mxGeometry relative="1" as="geometry">
            <mxPoint x="174.5" y="1028" as="targetPoint"/>
          </mxGeometry>
        </mxCell>
        <mxCell id="OtLc_l3Oetv-ATF042nH-40" value="" style="edgeStyle=orthogonalEdgeStyle;rounded=0;orthogonalLoop=1;jettySize=auto;html=1;" parent="1" source="OtLc_l3Oetv-ATF042nH-17" target="OtLc_l3Oetv-ATF042nH-22" edge="1">
          <mxGeometry relative="1" as="geometry"/>
        </mxCell>
        <mxCell id="OtLc_l3Oetv-ATF042nH-17" value="знак = &#39;/&#39; and число2 != 0" style="rhombus;whiteSpace=wrap;html=1;" parent="1" vertex="1">
          <mxGeometry x="254.5" y="988" width="108" height="80" as="geometry"/>
        </mxCell>
        <mxCell id="OtLc_l3Oetv-ATF042nH-53" style="edgeStyle=orthogonalEdgeStyle;rounded=0;orthogonalLoop=1;jettySize=auto;html=1;" parent="1" source="OtLc_l3Oetv-ATF042nH-18" edge="1">
          <mxGeometry relative="1" as="geometry">
            <mxPoint x="428.5" y="300" as="targetPoint"/>
            <Array as="points">
              <mxPoint x="26.5" y="708"/>
              <mxPoint x="26.5" y="300"/>
            </Array>
          </mxGeometry>
        </mxCell>
        <mxCell id="OtLc_l3Oetv-ATF042nH-18" value="вывод&lt;br&gt;число1 + число 2" style="shape=parallelogram;perimeter=parallelogramPerimeter;whiteSpace=wrap;html=1;" parent="1" vertex="1">
          <mxGeometry x="68.5" y="683" width="120" height="60" as="geometry"/>
        </mxCell>
        <mxCell id="OtLc_l3Oetv-ATF042nH-55" value="" style="edgeStyle=orthogonalEdgeStyle;rounded=0;orthogonalLoop=1;jettySize=auto;html=1;" parent="1" source="OtLc_l3Oetv-ATF042nH-19" edge="1">
          <mxGeometry relative="1" as="geometry">
            <mxPoint x="428.5" y="300" as="targetPoint"/>
            <Array as="points">
              <mxPoint x="26.5" y="818"/>
              <mxPoint x="26.5" y="300"/>
            </Array>
          </mxGeometry>
        </mxCell>
        <mxCell id="OtLc_l3Oetv-ATF042nH-19" value="вывод&lt;br&gt;число1 -число 2" style="shape=parallelogram;perimeter=parallelogramPerimeter;whiteSpace=wrap;html=1;" parent="1" vertex="1">
          <mxGeometry x="58.5" y="788" width="120" height="60" as="geometry"/>
        </mxCell>
        <mxCell id="OtLc_l3Oetv-ATF042nH-58" value="" style="edgeStyle=orthogonalEdgeStyle;rounded=0;orthogonalLoop=1;jettySize=auto;html=1;" parent="1" source="OtLc_l3Oetv-ATF042nH-20" edge="1">
          <mxGeometry relative="1" as="geometry">
            <mxPoint x="428.5" y="300" as="targetPoint"/>
            <Array as="points">
              <mxPoint x="26.5" y="923"/>
              <mxPoint x="26.5" y="300"/>
              <mxPoint x="376.5" y="300"/>
            </Array>
          </mxGeometry>
        </mxCell>
        <mxCell id="OtLc_l3Oetv-ATF042nH-20" value="вывод&lt;br&gt;число1 * число 2" style="shape=parallelogram;perimeter=parallelogramPerimeter;whiteSpace=wrap;html=1;" parent="1" vertex="1">
          <mxGeometry x="48.5" y="892" width="120" height="62" as="geometry"/>
        </mxCell>
        <mxCell id="OtLc_l3Oetv-ATF042nH-61" value="" style="edgeStyle=orthogonalEdgeStyle;rounded=0;orthogonalLoop=1;jettySize=auto;html=1;" parent="1" source="OtLc_l3Oetv-ATF042nH-21" edge="1">
          <mxGeometry relative="1" as="geometry">
            <mxPoint x="429.5" y="300" as="targetPoint"/>
            <Array as="points">
              <mxPoint x="26.5" y="1027"/>
              <mxPoint x="26.5" y="300"/>
              <mxPoint x="381.5" y="300"/>
            </Array>
          </mxGeometry>
        </mxCell>
        <mxCell id="OtLc_l3Oetv-ATF042nH-21" value="вывод&lt;br&gt;число1 / число 2" style="shape=parallelogram;perimeter=parallelogramPerimeter;whiteSpace=wrap;html=1;" parent="1" vertex="1">
          <mxGeometry x="48.5" y="998" width="120" height="60" as="geometry"/>
        </mxCell>
        <mxCell id="OtLc_l3Oetv-ATF042nH-47" style="edgeStyle=orthogonalEdgeStyle;rounded=0;orthogonalLoop=1;jettySize=auto;html=1;" parent="1" source="OtLc_l3Oetv-ATF042nH-22" edge="1">
          <mxGeometry relative="1" as="geometry">
            <mxPoint x="428.5" y="300" as="targetPoint"/>
            <Array as="points">
              <mxPoint x="468.5" y="1159"/>
              <mxPoint x="26.5" y="1159"/>
              <mxPoint x="26.5" y="300"/>
              <mxPoint x="376.5" y="300"/>
            </Array>
          </mxGeometry>
        </mxCell>
        <mxCell id="OtLc_l3Oetv-ATF042nH-22" value="вывод&lt;br&gt;ошибка деления на 0" style="shape=parallelogram;perimeter=parallelogramPerimeter;whiteSpace=wrap;html=1;" parent="1" vertex="1">
          <mxGeometry x="388.5" y="998" width="180" height="60" as="geometry"/>
        </mxCell>
        <mxCell id="OtLc_l3Oetv-ATF042nH-64" value="Конец" style="ellipse;whiteSpace=wrap;html=1;" parent="1" vertex="1">
          <mxGeometry x="706.5" y="588" width="120" height="80" as="geometry"/>
        </mxCell>
        <mxCell id="OtLc_l3Oetv-ATF042nH-67" value="" style="edgeStyle=orthogonalEdgeStyle;rounded=0;orthogonalLoop=1;jettySize=auto;html=1;entryX=0.5;entryY=0;entryDx=0;entryDy=0;" parent="1" source="OtLc_l3Oetv-ATF042nH-65" target="OtLc_l3Oetv-ATF042nH-64" edge="1">
          <mxGeometry relative="1" as="geometry">
            <mxPoint x="806.5" y="488" as="targetPoint"/>
            <Array as="points">
              <mxPoint x="796.5" y="439"/>
              <mxPoint x="796.5" y="553"/>
              <mxPoint x="767.5" y="553"/>
            </Array>
          </mxGeometry>
        </mxCell>
        <mxCell id="OtLc_l3Oetv-ATF042nH-65" value="Вывод &lt;br&gt;вы завершили программу" style="shape=parallelogram;perimeter=parallelogramPerimeter;whiteSpace=wrap;html=1;" parent="1" vertex="1">
          <mxGeometry x="582" y="408" width="200" height="60" as="geometry"/>
        </mxCell>
        <mxCell id="OtLc_l3Oetv-ATF042nH-69" value="да" style="text;html=1;strokeColor=none;fillColor=none;align=center;verticalAlign=middle;whiteSpace=wrap;rounded=0;" parent="1" vertex="1">
          <mxGeometry x="208.5" y="688" width="40" height="20" as="geometry"/>
        </mxCell>
        <mxCell id="OtLc_l3Oetv-ATF042nH-70" value="да" style="text;html=1;strokeColor=none;fillColor=none;align=center;verticalAlign=middle;whiteSpace=wrap;rounded=0;" parent="1" vertex="1">
          <mxGeometry x="208.5" y="798" width="40" height="20" as="geometry"/>
        </mxCell>
        <mxCell id="OtLc_l3Oetv-ATF042nH-71" value="да" style="text;html=1;strokeColor=none;fillColor=none;align=center;verticalAlign=middle;whiteSpace=wrap;rounded=0;" parent="1" vertex="1">
          <mxGeometry x="208.5" y="888" width="40" height="20" as="geometry"/>
        </mxCell>
        <mxCell id="OtLc_l3Oetv-ATF042nH-72" value="да" style="text;html=1;strokeColor=none;fillColor=none;align=center;verticalAlign=middle;whiteSpace=wrap;rounded=0;" parent="1" vertex="1">
          <mxGeometry x="208.5" y="998" width="40" height="20" as="geometry"/>
        </mxCell>
        <mxCell id="OtLc_l3Oetv-ATF042nH-73" value="нет" style="text;html=1;strokeColor=none;fillColor=none;align=center;verticalAlign=middle;whiteSpace=wrap;rounded=0;" parent="1" vertex="1">
          <mxGeometry x="314.5" y="740" width="40" height="20" as="geometry"/>
        </mxCell>
        <mxCell id="OtLc_l3Oetv-ATF042nH-74" value="нет" style="text;html=1;strokeColor=none;fillColor=none;align=center;verticalAlign=middle;whiteSpace=wrap;rounded=0;" parent="1" vertex="1">
          <mxGeometry x="322.5" y="858" width="40" height="20" as="geometry"/>
        </mxCell>
        <mxCell id="OtLc_l3Oetv-ATF042nH-75" value="нет" style="text;html=1;strokeColor=none;fillColor=none;align=center;verticalAlign=middle;whiteSpace=wrap;rounded=0;" parent="1" vertex="1">
          <mxGeometry x="316.5" y="958" width="40" height="20" as="geometry"/>
        </mxCell>
        <mxCell id="OtLc_l3Oetv-ATF042nH-76" value="нет" style="text;html=1;strokeColor=none;fillColor=none;align=center;verticalAlign=middle;whiteSpace=wrap;rounded=0;" parent="1" vertex="1">
          <mxGeometry x="354.5" y="998" width="40" height="20" as="geometry"/>
        </mxCell>
        <mxCell id="20eChf5AG5GrlfZ_8zUi-3" value="&lt;h3 style=&quot;box-sizing: border-box ; font-family: &amp;#34;roboto&amp;#34; , &amp;#34;san francisco&amp;#34; , &amp;#34;helvetica neue&amp;#34; , &amp;#34;helvetica&amp;#34; , &amp;#34;arial&amp;#34; ; font-weight: 500 ; line-height: 24px ; color: rgb(80 , 102 , 123) ; margin-top: 20px ; margin-bottom: 10px ; font-size: 17px ; background-color: rgb(255 , 255 , 255)&quot;&gt;Написать программу, которая будет складывать, вычитать, умножать или делить два числа. Числа и знак операции вводятся пользователем. После выполнения вычисления программа не завершается, а запрашивает новые данные для вычислений. Завершение программы должно выполняться при вводе символа &#39;0&#39; в качестве знака операции. Если пользователь вводит неверный знак (не &#39;0&#39;, &#39;+&#39;, &#39;-&#39;, &#39;&lt;em style=&quot;box-sizing: border-box&quot;&gt;&#39;&lt;/em&gt;, &#39;/&#39;), программа должна сообщать об ошибке и снова запрашивать знак операции. Также она должна сообщать пользователю о невозможности деления на ноль, если он ввел его в качестве делителя.&lt;/h3&gt;" style="text;html=1;strokeColor=none;fillColor=none;spacing=5;spacingTop=-20;whiteSpace=wrap;overflow=hidden;rounded=0;" vertex="1" parent="1">
          <mxGeometry x="21.5" y="20" width="770" height="280" as="geometry"/>
        </mxCell>
      </root>
    </mxGraphModel>
  </diagram>
  <diagram id="VYC4QHwjiXYXhQdHHb8H" name="Tak 2-3">
    <mxGraphModel dx="1408" dy="748" grid="1" gridSize="10" guides="1" tooltips="1" connect="1" arrows="1" fold="1" page="1" pageScale="1" pageWidth="827" pageHeight="1169" math="0" shadow="0">
      <root>
        <mxCell id="lGTuVKDiZQkKBE3Gu2LE-0"/>
        <mxCell id="lGTuVKDiZQkKBE3Gu2LE-1" parent="lGTuVKDiZQkKBE3Gu2LE-0"/>
        <mxCell id="RgZeZMgH2easxuy1TkRL-0" value="&lt;h1&gt;&lt;span style=&quot;background-color: transparent ; color: rgb(44 , 45 , 48) ; font-family: &amp;#34;arial&amp;#34; ; font-size: 16pt ; white-space: pre-wrap ; font-weight: normal&quot;&gt;Сформировать из введенного числа обратное по порядку входящих в него цифр и вывести на экран. Например, если введено число 3486, то надо вывести 6843.&lt;/span&gt;&lt;br&gt;&lt;/h1&gt;" style="text;html=1;strokeColor=none;fillColor=none;spacing=5;spacingTop=-20;whiteSpace=wrap;overflow=hidden;rounded=0;" parent="lGTuVKDiZQkKBE3Gu2LE-1" vertex="1">
          <mxGeometry x="20" y="20" width="670" height="90" as="geometry"/>
        </mxCell>
        <mxCell id="RgZeZMgH2easxuy1TkRL-15" value="" style="edgeStyle=orthogonalEdgeStyle;rounded=0;orthogonalLoop=1;jettySize=auto;html=1;" parent="lGTuVKDiZQkKBE3Gu2LE-1" source="RgZeZMgH2easxuy1TkRL-3" target="RgZeZMgH2easxuy1TkRL-4" edge="1">
          <mxGeometry relative="1" as="geometry"/>
        </mxCell>
        <mxCell id="RgZeZMgH2easxuy1TkRL-3" value="Начало" style="ellipse;whiteSpace=wrap;html=1;" parent="lGTuVKDiZQkKBE3Gu2LE-1" vertex="1">
          <mxGeometry x="293" y="130" width="120" height="80" as="geometry"/>
        </mxCell>
        <mxCell id="RgZeZMgH2easxuy1TkRL-16" value="" style="edgeStyle=orthogonalEdgeStyle;rounded=0;orthogonalLoop=1;jettySize=auto;html=1;" parent="lGTuVKDiZQkKBE3Gu2LE-1" source="RgZeZMgH2easxuy1TkRL-4" target="RgZeZMgH2easxuy1TkRL-5" edge="1">
          <mxGeometry relative="1" as="geometry"/>
        </mxCell>
        <mxCell id="RgZeZMgH2easxuy1TkRL-4" value="Ввод&lt;br&gt;&amp;nbsp;number = input(введите число)" style="shape=parallelogram;perimeter=parallelogramPerimeter;whiteSpace=wrap;html=1;" parent="lGTuVKDiZQkKBE3Gu2LE-1" vertex="1">
          <mxGeometry x="229.5" y="260" width="247" height="70" as="geometry"/>
        </mxCell>
        <mxCell id="RgZeZMgH2easxuy1TkRL-17" value="" style="edgeStyle=orthogonalEdgeStyle;rounded=0;orthogonalLoop=1;jettySize=auto;html=1;" parent="lGTuVKDiZQkKBE3Gu2LE-1" source="RgZeZMgH2easxuy1TkRL-5" target="RgZeZMgH2easxuy1TkRL-6" edge="1">
          <mxGeometry relative="1" as="geometry"/>
        </mxCell>
        <mxCell id="RgZeZMgH2easxuy1TkRL-5" value="rev_num = &#39;&#39;" style="rounded=0;whiteSpace=wrap;html=1;" parent="lGTuVKDiZQkKBE3Gu2LE-1" vertex="1">
          <mxGeometry x="293" y="370" width="120" height="60" as="geometry"/>
        </mxCell>
        <mxCell id="RgZeZMgH2easxuy1TkRL-8" style="edgeStyle=orthogonalEdgeStyle;rounded=0;orthogonalLoop=1;jettySize=auto;html=1;" parent="lGTuVKDiZQkKBE3Gu2LE-1" source="RgZeZMgH2easxuy1TkRL-6" target="RgZeZMgH2easxuy1TkRL-7" edge="1">
          <mxGeometry relative="1" as="geometry"/>
        </mxCell>
        <mxCell id="RgZeZMgH2easxuy1TkRL-13" style="edgeStyle=orthogonalEdgeStyle;rounded=0;orthogonalLoop=1;jettySize=auto;html=1;entryX=0;entryY=0.5;entryDx=0;entryDy=0;" parent="lGTuVKDiZQkKBE3Gu2LE-1" source="RgZeZMgH2easxuy1TkRL-6" target="RgZeZMgH2easxuy1TkRL-10" edge="1">
          <mxGeometry relative="1" as="geometry"/>
        </mxCell>
        <mxCell id="RgZeZMgH2easxuy1TkRL-6" value="number // 10 &amp;gt;0" style="rhombus;whiteSpace=wrap;html=1;" parent="lGTuVKDiZQkKBE3Gu2LE-1" vertex="1">
          <mxGeometry x="268" y="475" width="170" height="80" as="geometry"/>
        </mxCell>
        <mxCell id="RgZeZMgH2easxuy1TkRL-9" style="edgeStyle=orthogonalEdgeStyle;rounded=0;orthogonalLoop=1;jettySize=auto;html=1;entryX=0;entryY=0.5;entryDx=0;entryDy=0;" parent="lGTuVKDiZQkKBE3Gu2LE-1" source="RgZeZMgH2easxuy1TkRL-7" target="RgZeZMgH2easxuy1TkRL-6" edge="1">
          <mxGeometry relative="1" as="geometry">
            <Array as="points">
              <mxPoint x="360" y="690"/>
              <mxPoint x="170" y="690"/>
              <mxPoint x="170" y="515"/>
            </Array>
          </mxGeometry>
        </mxCell>
        <mxCell id="RgZeZMgH2easxuy1TkRL-7" value="rev_num += number%10&lt;br&gt;&lt;br&gt;number //=10" style="rounded=0;whiteSpace=wrap;html=1;" parent="lGTuVKDiZQkKBE3Gu2LE-1" vertex="1">
          <mxGeometry x="253" y="600" width="200" height="60" as="geometry"/>
        </mxCell>
        <mxCell id="RgZeZMgH2easxuy1TkRL-14" style="edgeStyle=orthogonalEdgeStyle;rounded=0;orthogonalLoop=1;jettySize=auto;html=1;" parent="lGTuVKDiZQkKBE3Gu2LE-1" source="RgZeZMgH2easxuy1TkRL-10" target="RgZeZMgH2easxuy1TkRL-12" edge="1">
          <mxGeometry relative="1" as="geometry"/>
        </mxCell>
        <mxCell id="RgZeZMgH2easxuy1TkRL-10" value="Вывод&lt;br&gt;rev_num" style="shape=parallelogram;perimeter=parallelogramPerimeter;whiteSpace=wrap;html=1;" parent="lGTuVKDiZQkKBE3Gu2LE-1" vertex="1">
          <mxGeometry x="540" y="485" width="120" height="60" as="geometry"/>
        </mxCell>
        <mxCell id="RgZeZMgH2easxuy1TkRL-12" value="Конец" style="ellipse;whiteSpace=wrap;html=1;" parent="lGTuVKDiZQkKBE3Gu2LE-1" vertex="1">
          <mxGeometry x="540" y="640" width="120" height="80" as="geometry"/>
        </mxCell>
        <mxCell id="iSrfKTXhpsOFVOx3znaE-0" value="Да" style="text;html=1;resizable=0;points=[];autosize=1;align=left;verticalAlign=top;spacingTop=-4;" vertex="1" parent="lGTuVKDiZQkKBE3Gu2LE-1">
          <mxGeometry x="355" y="564" width="30" height="20" as="geometry"/>
        </mxCell>
        <mxCell id="iSrfKTXhpsOFVOx3znaE-1" value="Нет" style="text;html=1;resizable=0;points=[];autosize=1;align=left;verticalAlign=top;spacingTop=-4;" vertex="1" parent="lGTuVKDiZQkKBE3Gu2LE-1">
          <mxGeometry x="433" y="495" width="40" height="20" as="geometry"/>
        </mxCell>
      </root>
    </mxGraphModel>
  </diagram>
  <diagram id="PITN7NKYde6Xkrb7bRY6" name="Task2-7">
    <mxGraphModel dx="3643" dy="1496" grid="1" gridSize="10" guides="1" tooltips="1" connect="1" arrows="1" fold="1" page="1" pageScale="1" pageWidth="827" pageHeight="1169" math="0" shadow="0">
      <root>
        <mxCell id="g-Eo6CP6DrlIyl_DQH2s-0"/>
        <mxCell id="g-Eo6CP6DrlIyl_DQH2s-1" parent="g-Eo6CP6DrlIyl_DQH2s-0"/>
        <mxCell id="6RBcItC7hYWBxBe4ZGCl-5" style="edgeStyle=orthogonalEdgeStyle;rounded=0;orthogonalLoop=1;jettySize=auto;html=1;" parent="g-Eo6CP6DrlIyl_DQH2s-1" source="6RBcItC7hYWBxBe4ZGCl-0" target="6RBcItC7hYWBxBe4ZGCl-1" edge="1">
          <mxGeometry relative="1" as="geometry"/>
        </mxCell>
        <mxCell id="6RBcItC7hYWBxBe4ZGCl-0" value="def progress(n)" style="ellipse;whiteSpace=wrap;html=1;" parent="g-Eo6CP6DrlIyl_DQH2s-1" vertex="1">
          <mxGeometry x="-338" y="30" width="120" height="80" as="geometry"/>
        </mxCell>
        <mxCell id="6RBcItC7hYWBxBe4ZGCl-6" style="edgeStyle=orthogonalEdgeStyle;rounded=0;orthogonalLoop=1;jettySize=auto;html=1;" parent="g-Eo6CP6DrlIyl_DQH2s-1" source="6RBcItC7hYWBxBe4ZGCl-1" target="6RBcItC7hYWBxBe4ZGCl-3" edge="1">
          <mxGeometry relative="1" as="geometry"/>
        </mxCell>
        <mxCell id="6RBcItC7hYWBxBe4ZGCl-7" style="edgeStyle=orthogonalEdgeStyle;rounded=0;orthogonalLoop=1;jettySize=auto;html=1;" parent="g-Eo6CP6DrlIyl_DQH2s-1" source="6RBcItC7hYWBxBe4ZGCl-1" target="6RBcItC7hYWBxBe4ZGCl-4" edge="1">
          <mxGeometry relative="1" as="geometry"/>
        </mxCell>
        <mxCell id="6RBcItC7hYWBxBe4ZGCl-1" value="n&amp;gt;0" style="rhombus;whiteSpace=wrap;html=1;" parent="g-Eo6CP6DrlIyl_DQH2s-1" vertex="1">
          <mxGeometry x="-353" y="150" width="150" height="80" as="geometry"/>
        </mxCell>
        <mxCell id="6RBcItC7hYWBxBe4ZGCl-10" style="edgeStyle=orthogonalEdgeStyle;rounded=0;orthogonalLoop=1;jettySize=auto;html=1;entryX=0.5;entryY=0;entryDx=0;entryDy=0;" parent="g-Eo6CP6DrlIyl_DQH2s-1" source="6RBcItC7hYWBxBe4ZGCl-3" target="6RBcItC7hYWBxBe4ZGCl-8" edge="1">
          <mxGeometry relative="1" as="geometry">
            <Array as="points">
              <mxPoint x="-101" y="310"/>
              <mxPoint x="-278" y="310"/>
            </Array>
          </mxGeometry>
        </mxCell>
        <mxCell id="6RBcItC7hYWBxBe4ZGCl-3" value="n + progress(n-1)&amp;nbsp;" style="rounded=0;whiteSpace=wrap;html=1;" parent="g-Eo6CP6DrlIyl_DQH2s-1" vertex="1">
          <mxGeometry x="-180" y="240" width="157" height="60" as="geometry"/>
        </mxCell>
        <mxCell id="6RBcItC7hYWBxBe4ZGCl-9" style="edgeStyle=orthogonalEdgeStyle;rounded=0;orthogonalLoop=1;jettySize=auto;html=1;entryX=0.5;entryY=0;entryDx=0;entryDy=0;" parent="g-Eo6CP6DrlIyl_DQH2s-1" source="6RBcItC7hYWBxBe4ZGCl-4" target="6RBcItC7hYWBxBe4ZGCl-8" edge="1">
          <mxGeometry relative="1" as="geometry">
            <Array as="points">
              <mxPoint x="-423" y="310"/>
              <mxPoint x="-278" y="310"/>
            </Array>
          </mxGeometry>
        </mxCell>
        <mxCell id="6RBcItC7hYWBxBe4ZGCl-4" value="n" style="rounded=0;whiteSpace=wrap;html=1;" parent="g-Eo6CP6DrlIyl_DQH2s-1" vertex="1">
          <mxGeometry x="-453" y="240" width="60" height="60" as="geometry"/>
        </mxCell>
        <mxCell id="6RBcItC7hYWBxBe4ZGCl-8" value="Конец" style="ellipse;whiteSpace=wrap;html=1;" parent="g-Eo6CP6DrlIyl_DQH2s-1" vertex="1">
          <mxGeometry x="-338" y="350" width="120" height="80" as="geometry"/>
        </mxCell>
        <mxCell id="6RBcItC7hYWBxBe4ZGCl-27" value="" style="edgeStyle=orthogonalEdgeStyle;rounded=0;orthogonalLoop=1;jettySize=auto;html=1;" parent="g-Eo6CP6DrlIyl_DQH2s-1" source="6RBcItC7hYWBxBe4ZGCl-12" target="6RBcItC7hYWBxBe4ZGCl-14" edge="1">
          <mxGeometry relative="1" as="geometry"/>
        </mxCell>
        <mxCell id="6RBcItC7hYWBxBe4ZGCl-12" value="Начало" style="ellipse;whiteSpace=wrap;html=1;" parent="g-Eo6CP6DrlIyl_DQH2s-1" vertex="1">
          <mxGeometry x="-513" y="430" width="120" height="80" as="geometry"/>
        </mxCell>
        <mxCell id="6RBcItC7hYWBxBe4ZGCl-28" value="" style="edgeStyle=orthogonalEdgeStyle;rounded=0;orthogonalLoop=1;jettySize=auto;html=1;" parent="g-Eo6CP6DrlIyl_DQH2s-1" source="6RBcItC7hYWBxBe4ZGCl-14" target="6RBcItC7hYWBxBe4ZGCl-15" edge="1">
          <mxGeometry relative="1" as="geometry"/>
        </mxCell>
        <mxCell id="6RBcItC7hYWBxBe4ZGCl-14" value="Ввод n" style="shape=parallelogram;perimeter=parallelogramPerimeter;whiteSpace=wrap;html=1;" parent="g-Eo6CP6DrlIyl_DQH2s-1" vertex="1">
          <mxGeometry x="-513" y="540" width="120" height="60" as="geometry"/>
        </mxCell>
        <mxCell id="6RBcItC7hYWBxBe4ZGCl-30" value="" style="edgeStyle=orthogonalEdgeStyle;rounded=0;orthogonalLoop=1;jettySize=auto;html=1;" parent="g-Eo6CP6DrlIyl_DQH2s-1" source="6RBcItC7hYWBxBe4ZGCl-15" target="6RBcItC7hYWBxBe4ZGCl-25" edge="1">
          <mxGeometry relative="1" as="geometry"/>
        </mxCell>
        <mxCell id="6RBcItC7hYWBxBe4ZGCl-15" value="&lt;pre style=&quot;background-color: rgb(255 , 255 , 255) ; font-family: &amp;#34;consolas&amp;#34;&quot;&gt;sum_progress = &lt;span style=&quot;color: #000080&quot;&gt;int&lt;/span&gt;((&lt;span style=&quot;color: #0000ff&quot;&gt;1 &lt;/span&gt;+ n) * n / &lt;span style=&quot;color: #0000ff&quot;&gt;2&lt;/span&gt;)&lt;/pre&gt;" style="rounded=0;whiteSpace=wrap;html=1;" parent="g-Eo6CP6DrlIyl_DQH2s-1" vertex="1">
          <mxGeometry x="-573" y="620" width="240" height="60" as="geometry"/>
        </mxCell>
        <mxCell id="6RBcItC7hYWBxBe4ZGCl-32" style="edgeStyle=orthogonalEdgeStyle;rounded=0;orthogonalLoop=1;jettySize=auto;html=1;" parent="g-Eo6CP6DrlIyl_DQH2s-1" source="6RBcItC7hYWBxBe4ZGCl-17" target="6RBcItC7hYWBxBe4ZGCl-18" edge="1">
          <mxGeometry relative="1" as="geometry"/>
        </mxCell>
        <mxCell id="6RBcItC7hYWBxBe4ZGCl-35" style="edgeStyle=orthogonalEdgeStyle;rounded=0;orthogonalLoop=1;jettySize=auto;html=1;entryX=0.5;entryY=0;entryDx=0;entryDy=0;" parent="g-Eo6CP6DrlIyl_DQH2s-1" source="6RBcItC7hYWBxBe4ZGCl-17" target="6RBcItC7hYWBxBe4ZGCl-26" edge="1">
          <mxGeometry relative="1" as="geometry">
            <Array as="points">
              <mxPoint x="-246" y="860"/>
            </Array>
          </mxGeometry>
        </mxCell>
        <mxCell id="6RBcItC7hYWBxBe4ZGCl-17" value="sum_progress== func_progress" style="rhombus;whiteSpace=wrap;html=1;" parent="g-Eo6CP6DrlIyl_DQH2s-1" vertex="1">
          <mxGeometry x="-569.5" y="820" width="233" height="80" as="geometry"/>
        </mxCell>
        <mxCell id="6RBcItC7hYWBxBe4ZGCl-37" style="edgeStyle=orthogonalEdgeStyle;rounded=0;orthogonalLoop=1;jettySize=auto;html=1;" parent="g-Eo6CP6DrlIyl_DQH2s-1" source="6RBcItC7hYWBxBe4ZGCl-18" target="6RBcItC7hYWBxBe4ZGCl-36" edge="1">
          <mxGeometry relative="1" as="geometry">
            <Array as="points">
              <mxPoint x="-696" y="1020"/>
              <mxPoint x="-453" y="1020"/>
            </Array>
          </mxGeometry>
        </mxCell>
        <mxCell id="6RBcItC7hYWBxBe4ZGCl-18" value="Равенство выполняется&lt;br&gt;func_progress&lt;br&gt;sum_progress" style="shape=parallelogram;perimeter=parallelogramPerimeter;whiteSpace=wrap;html=1;" parent="g-Eo6CP6DrlIyl_DQH2s-1" vertex="1">
          <mxGeometry x="-806" y="920" width="220" height="83" as="geometry"/>
        </mxCell>
        <mxCell id="6RBcItC7hYWBxBe4ZGCl-31" value="" style="edgeStyle=orthogonalEdgeStyle;rounded=0;orthogonalLoop=1;jettySize=auto;html=1;" parent="g-Eo6CP6DrlIyl_DQH2s-1" source="6RBcItC7hYWBxBe4ZGCl-25" target="6RBcItC7hYWBxBe4ZGCl-17" edge="1">
          <mxGeometry relative="1" as="geometry"/>
        </mxCell>
        <mxCell id="6RBcItC7hYWBxBe4ZGCl-25" value="func_progress = progress(n)" style="shape=process;whiteSpace=wrap;html=1;backgroundOutline=1;" parent="g-Eo6CP6DrlIyl_DQH2s-1" vertex="1">
          <mxGeometry x="-573" y="720" width="240" height="60" as="geometry"/>
        </mxCell>
        <mxCell id="6RBcItC7hYWBxBe4ZGCl-38" style="edgeStyle=orthogonalEdgeStyle;rounded=0;orthogonalLoop=1;jettySize=auto;html=1;" parent="g-Eo6CP6DrlIyl_DQH2s-1" source="6RBcItC7hYWBxBe4ZGCl-26" target="6RBcItC7hYWBxBe4ZGCl-36" edge="1">
          <mxGeometry relative="1" as="geometry">
            <Array as="points">
              <mxPoint x="-246" y="1020"/>
              <mxPoint x="-453" y="1020"/>
            </Array>
          </mxGeometry>
        </mxCell>
        <mxCell id="6RBcItC7hYWBxBe4ZGCl-26" value="Равенство не выполняется" style="shape=parallelogram;perimeter=parallelogramPerimeter;whiteSpace=wrap;html=1;" parent="g-Eo6CP6DrlIyl_DQH2s-1" vertex="1">
          <mxGeometry x="-366" y="923" width="240" height="80" as="geometry"/>
        </mxCell>
        <mxCell id="6RBcItC7hYWBxBe4ZGCl-36" value="Конец" style="ellipse;whiteSpace=wrap;html=1;" parent="g-Eo6CP6DrlIyl_DQH2s-1" vertex="1">
          <mxGeometry x="-513" y="1060" width="120" height="80" as="geometry"/>
        </mxCell>
        <mxCell id="-qtF7QeFHUNs60MpRwod-0" value="Да" style="text;html=1;resizable=0;points=[];autosize=1;align=left;verticalAlign=top;spacingTop=-4;" vertex="1" parent="g-Eo6CP6DrlIyl_DQH2s-1">
          <mxGeometry x="-208" y="168" width="30" height="20" as="geometry"/>
        </mxCell>
        <mxCell id="-qtF7QeFHUNs60MpRwod-1" value="Нет" style="text;html=1;resizable=0;points=[];autosize=1;align=left;verticalAlign=top;spacingTop=-4;" vertex="1" parent="g-Eo6CP6DrlIyl_DQH2s-1">
          <mxGeometry x="-370" y="162" width="40" height="20" as="geometry"/>
        </mxCell>
        <mxCell id="-qtF7QeFHUNs60MpRwod-2" value="нет" style="text;html=1;resizable=0;points=[];autosize=1;align=left;verticalAlign=top;spacingTop=-4;" vertex="1" parent="g-Eo6CP6DrlIyl_DQH2s-1">
          <mxGeometry x="-407" y="820" width="30" height="20" as="geometry"/>
        </mxCell>
        <mxCell id="-qtF7QeFHUNs60MpRwod-3" value="Да" style="text;html=1;resizable=0;points=[];autosize=1;align=left;verticalAlign=top;spacingTop=-4;" vertex="1" parent="g-Eo6CP6DrlIyl_DQH2s-1">
          <mxGeometry x="-528" y="820" width="30" height="20" as="geometry"/>
        </mxCell>
        <mxCell id="7_ReeU52cLWUKyYAJ7yh-0" value="&lt;h1&gt;&lt;span style=&quot;background-color: rgb(255 , 255 , 255) ; color: rgb(80 , 102 , 123) ; font-family: &amp;#34;roboto&amp;#34; , &amp;#34;san francisco&amp;#34; , &amp;#34;helvetica neue&amp;#34; , &amp;#34;helvetica&amp;#34; , &amp;#34;arial&amp;#34; ; font-size: 17px ; font-weight: 500&quot;&gt;7. Написать программу, доказывающую или проверяющую, что для множества натуральных чисел выполняется равенство: 1+2+...+n = n(n+1)/2, где n — любое натуральное число.&lt;/span&gt;&lt;br&gt;&lt;/h1&gt;" style="text;html=1;strokeColor=none;fillColor=none;spacing=5;spacingTop=-20;whiteSpace=wrap;overflow=hidden;rounded=0;" vertex="1" parent="g-Eo6CP6DrlIyl_DQH2s-1">
          <mxGeometry x="-806" y="30" width="346" height="310" as="geometry"/>
        </mxCell>
      </root>
    </mxGraphModel>
  </diagram>
  <diagram id="aFyTy77ceR6MgdM2YZIS" name="Task 2-8">
    <mxGraphModel dx="1408" dy="748" grid="1" gridSize="10" guides="1" tooltips="1" connect="1" arrows="1" fold="1" page="1" pageScale="1" pageWidth="827" pageHeight="1169" math="0" shadow="0">
      <root>
        <mxCell id="3TISv3wBjOuIwgSo-trB-0"/>
        <mxCell id="3TISv3wBjOuIwgSo-trB-1" parent="3TISv3wBjOuIwgSo-trB-0"/>
        <mxCell id="3TISv3wBjOuIwgSo-trB-2" value="&lt;h1&gt;&lt;span style=&quot;font-weight: normal&quot; id=&quot;docs-internal-guid-b36f7579-7fff-beb7-0060-bb69feb1fd56&quot;&gt;&lt;ol style=&quot;margin-top: 0 ; margin-bottom: 0&quot; start=&quot;8&quot;&gt;&lt;li dir=&quot;ltr&quot; style=&quot;list-style-type: decimal ; font-size: 16pt ; font-family: &amp;#34;arial&amp;#34; ; color: rgb(44 , 45 , 48) ; background-color: transparent ; vertical-align: baseline ; white-space: pre&quot;&gt;&lt;p dir=&quot;ltr&quot; style=&quot;line-height: 1.2 ; margin-top: 10pt ; margin-bottom: 10pt&quot;&gt;&lt;span style=&quot;font-size: 16pt ; background-color: transparent ; vertical-align: baseline ; white-space: pre-wrap&quot;&gt;Посчитать, сколько раз встречается определенная цифра в введенной последовательности чисел. Количество вводимых чисел и цифра, которую необходимо посчитать, задаются вводом с клавиатуры.&amp;nbsp;&lt;/span&gt;&lt;/p&gt;&lt;/li&gt;&lt;/ol&gt;&lt;/span&gt;&lt;/h1&gt;" style="text;html=1;strokeColor=none;fillColor=none;spacing=5;spacingTop=-20;whiteSpace=wrap;overflow=hidden;rounded=0;" parent="3TISv3wBjOuIwgSo-trB-1" vertex="1">
          <mxGeometry x="20" y="20" width="640" height="130" as="geometry"/>
        </mxCell>
        <mxCell id="3TISv3wBjOuIwgSo-trB-7" value="" style="edgeStyle=orthogonalEdgeStyle;rounded=0;orthogonalLoop=1;jettySize=auto;html=1;" parent="3TISv3wBjOuIwgSo-trB-1" source="3TISv3wBjOuIwgSo-trB-3" target="3TISv3wBjOuIwgSo-trB-4" edge="1">
          <mxGeometry relative="1" as="geometry"/>
        </mxCell>
        <mxCell id="3TISv3wBjOuIwgSo-trB-3" value="Начало" style="ellipse;whiteSpace=wrap;html=1;" parent="3TISv3wBjOuIwgSo-trB-1" vertex="1">
          <mxGeometry x="300" y="150" width="120" height="80" as="geometry"/>
        </mxCell>
        <mxCell id="3TISv3wBjOuIwgSo-trB-8" value="" style="edgeStyle=orthogonalEdgeStyle;rounded=0;orthogonalLoop=1;jettySize=auto;html=1;" parent="3TISv3wBjOuIwgSo-trB-1" source="3TISv3wBjOuIwgSo-trB-4" target="3TISv3wBjOuIwgSo-trB-5" edge="1">
          <mxGeometry relative="1" as="geometry"/>
        </mxCell>
        <mxCell id="3TISv3wBjOuIwgSo-trB-4" value="a = input(сколько чисел будем вводить?&#39;&lt;br&gt;b = input( какую цифру будем искать?&#39;" style="shape=parallelogram;perimeter=parallelogramPerimeter;whiteSpace=wrap;html=1;" parent="3TISv3wBjOuIwgSo-trB-1" vertex="1">
          <mxGeometry x="160" y="270" width="400" height="90" as="geometry"/>
        </mxCell>
        <mxCell id="3TISv3wBjOuIwgSo-trB-37" style="edgeStyle=orthogonalEdgeStyle;rounded=0;orthogonalLoop=1;jettySize=auto;html=1;entryX=0.5;entryY=0;entryDx=0;entryDy=0;" parent="3TISv3wBjOuIwgSo-trB-1" source="3TISv3wBjOuIwgSo-trB-5" target="3TISv3wBjOuIwgSo-trB-6" edge="1">
          <mxGeometry relative="1" as="geometry"/>
        </mxCell>
        <mxCell id="3TISv3wBjOuIwgSo-trB-5" value="c = &#39;&#39;&lt;br&gt;i = 1" style="rounded=0;whiteSpace=wrap;html=1;" parent="3TISv3wBjOuIwgSo-trB-1" vertex="1">
          <mxGeometry x="300" y="410" width="120" height="60" as="geometry"/>
        </mxCell>
        <mxCell id="3TISv3wBjOuIwgSo-trB-14" style="edgeStyle=orthogonalEdgeStyle;rounded=0;orthogonalLoop=1;jettySize=auto;html=1;entryX=0.5;entryY=0;entryDx=0;entryDy=0;" parent="3TISv3wBjOuIwgSo-trB-1" source="3TISv3wBjOuIwgSo-trB-6" target="3TISv3wBjOuIwgSo-trB-10" edge="1">
          <mxGeometry relative="1" as="geometry">
            <Array as="points">
              <mxPoint x="210" y="640"/>
              <mxPoint x="210" y="640"/>
            </Array>
          </mxGeometry>
        </mxCell>
        <mxCell id="3TISv3wBjOuIwgSo-trB-20" value="" style="edgeStyle=orthogonalEdgeStyle;rounded=0;orthogonalLoop=1;jettySize=auto;html=1;" parent="3TISv3wBjOuIwgSo-trB-1" source="3TISv3wBjOuIwgSo-trB-6" target="3TISv3wBjOuIwgSo-trB-19" edge="1">
          <mxGeometry relative="1" as="geometry"/>
        </mxCell>
        <mxCell id="3TISv3wBjOuIwgSo-trB-6" value="&amp;nbsp;i &amp;gt;= a" style="rhombus;whiteSpace=wrap;html=1;" parent="3TISv3wBjOuIwgSo-trB-1" vertex="1">
          <mxGeometry x="135" y="544" width="150" height="80" as="geometry"/>
        </mxCell>
        <mxCell id="3TISv3wBjOuIwgSo-trB-15" value="" style="edgeStyle=orthogonalEdgeStyle;rounded=0;orthogonalLoop=1;jettySize=auto;html=1;" parent="3TISv3wBjOuIwgSo-trB-1" source="3TISv3wBjOuIwgSo-trB-10" target="3TISv3wBjOuIwgSo-trB-11" edge="1">
          <mxGeometry relative="1" as="geometry"/>
        </mxCell>
        <mxCell id="3TISv3wBjOuIwgSo-trB-10" value="Ввод&lt;br&gt;введите число" style="shape=parallelogram;perimeter=parallelogramPerimeter;whiteSpace=wrap;html=1;" parent="3TISv3wBjOuIwgSo-trB-1" vertex="1">
          <mxGeometry x="150" y="660" width="120" height="60" as="geometry"/>
        </mxCell>
        <mxCell id="3TISv3wBjOuIwgSo-trB-18" style="edgeStyle=orthogonalEdgeStyle;rounded=0;orthogonalLoop=1;jettySize=auto;html=1;entryX=0;entryY=0.5;entryDx=0;entryDy=0;" parent="3TISv3wBjOuIwgSo-trB-1" source="3TISv3wBjOuIwgSo-trB-11" target="3TISv3wBjOuIwgSo-trB-6" edge="1">
          <mxGeometry relative="1" as="geometry">
            <Array as="points">
              <mxPoint x="210" y="840"/>
              <mxPoint x="50" y="840"/>
              <mxPoint x="50" y="584"/>
            </Array>
          </mxGeometry>
        </mxCell>
        <mxCell id="3TISv3wBjOuIwgSo-trB-11" value="с+=число&lt;br&gt;i+=1" style="rounded=0;whiteSpace=wrap;html=1;" parent="3TISv3wBjOuIwgSo-trB-1" vertex="1">
          <mxGeometry x="150" y="760" width="120" height="60" as="geometry"/>
        </mxCell>
        <mxCell id="3TISv3wBjOuIwgSo-trB-26" style="edgeStyle=orthogonalEdgeStyle;rounded=0;orthogonalLoop=1;jettySize=auto;html=1;entryX=0.5;entryY=0;entryDx=0;entryDy=0;" parent="3TISv3wBjOuIwgSo-trB-1" source="3TISv3wBjOuIwgSo-trB-19" target="3TISv3wBjOuIwgSo-trB-23" edge="1">
          <mxGeometry relative="1" as="geometry">
            <Array as="points">
              <mxPoint x="540" y="584"/>
            </Array>
          </mxGeometry>
        </mxCell>
        <mxCell id="3TISv3wBjOuIwgSo-trB-19" value="d = &#39;&#39;" style="rounded=0;whiteSpace=wrap;html=1;" parent="3TISv3wBjOuIwgSo-trB-1" vertex="1">
          <mxGeometry x="350" y="554" width="120" height="60" as="geometry"/>
        </mxCell>
        <mxCell id="3TISv3wBjOuIwgSo-trB-21" value="нет" style="text;html=1;resizable=0;points=[];autosize=1;align=left;verticalAlign=top;spacingTop=-4;" parent="3TISv3wBjOuIwgSo-trB-1" vertex="1">
          <mxGeometry x="227" y="634" width="30" height="20" as="geometry"/>
        </mxCell>
        <mxCell id="3TISv3wBjOuIwgSo-trB-22" value="да" style="text;html=1;resizable=0;points=[];autosize=1;align=left;verticalAlign=top;spacingTop=-4;" parent="3TISv3wBjOuIwgSo-trB-1" vertex="1">
          <mxGeometry x="285" y="564" width="30" height="20" as="geometry"/>
        </mxCell>
        <mxCell id="3TISv3wBjOuIwgSo-trB-28" value="" style="edgeStyle=orthogonalEdgeStyle;rounded=0;orthogonalLoop=1;jettySize=auto;html=1;" parent="3TISv3wBjOuIwgSo-trB-1" source="3TISv3wBjOuIwgSo-trB-23" target="3TISv3wBjOuIwgSo-trB-27" edge="1">
          <mxGeometry relative="1" as="geometry"/>
        </mxCell>
        <mxCell id="3TISv3wBjOuIwgSo-trB-34" style="edgeStyle=orthogonalEdgeStyle;rounded=0;orthogonalLoop=1;jettySize=auto;html=1;entryX=0.5;entryY=0;entryDx=0;entryDy=0;" parent="3TISv3wBjOuIwgSo-trB-1" source="3TISv3wBjOuIwgSo-trB-23" target="3TISv3wBjOuIwgSo-trB-33" edge="1">
          <mxGeometry relative="1" as="geometry"/>
        </mxCell>
        <mxCell id="3TISv3wBjOuIwgSo-trB-23" value="b in c" style="rhombus;whiteSpace=wrap;html=1;" parent="3TISv3wBjOuIwgSo-trB-1" vertex="1">
          <mxGeometry x="440" y="654" width="200" height="80" as="geometry"/>
        </mxCell>
        <mxCell id="3TISv3wBjOuIwgSo-trB-29" style="edgeStyle=orthogonalEdgeStyle;rounded=0;orthogonalLoop=1;jettySize=auto;html=1;entryX=0;entryY=0.5;entryDx=0;entryDy=0;" parent="3TISv3wBjOuIwgSo-trB-1" source="3TISv3wBjOuIwgSo-trB-27" target="3TISv3wBjOuIwgSo-trB-23" edge="1">
          <mxGeometry relative="1" as="geometry">
            <Array as="points">
              <mxPoint x="540" y="870"/>
              <mxPoint x="420" y="870"/>
              <mxPoint x="420" y="694"/>
            </Array>
          </mxGeometry>
        </mxCell>
        <mxCell id="3TISv3wBjOuIwgSo-trB-27" value="d += str(b)" style="rounded=0;whiteSpace=wrap;html=1;" parent="3TISv3wBjOuIwgSo-trB-1" vertex="1">
          <mxGeometry x="480" y="780" width="120" height="60" as="geometry"/>
        </mxCell>
        <mxCell id="3TISv3wBjOuIwgSo-trB-36" style="edgeStyle=orthogonalEdgeStyle;rounded=0;orthogonalLoop=1;jettySize=auto;html=1;entryX=0.5;entryY=0;entryDx=0;entryDy=0;" parent="3TISv3wBjOuIwgSo-trB-1" source="3TISv3wBjOuIwgSo-trB-33" target="3TISv3wBjOuIwgSo-trB-35" edge="1">
          <mxGeometry relative="1" as="geometry">
            <Array as="points">
              <mxPoint x="730" y="900"/>
              <mxPoint x="350" y="900"/>
            </Array>
          </mxGeometry>
        </mxCell>
        <mxCell id="3TISv3wBjOuIwgSo-trB-33" value="Вывод len(d)" style="shape=parallelogram;perimeter=parallelogramPerimeter;whiteSpace=wrap;html=1;" parent="3TISv3wBjOuIwgSo-trB-1" vertex="1">
          <mxGeometry x="670" y="780" width="120" height="60" as="geometry"/>
        </mxCell>
        <mxCell id="3TISv3wBjOuIwgSo-trB-35" value="Конец" style="ellipse;whiteSpace=wrap;html=1;" parent="3TISv3wBjOuIwgSo-trB-1" vertex="1">
          <mxGeometry x="290" y="930" width="120" height="80" as="geometry"/>
        </mxCell>
        <mxCell id="3TISv3wBjOuIwgSo-trB-38" value="да" style="text;html=1;resizable=0;points=[];autosize=1;align=left;verticalAlign=top;spacingTop=-4;" parent="3TISv3wBjOuIwgSo-trB-1" vertex="1">
          <mxGeometry x="555" y="745" width="30" height="20" as="geometry"/>
        </mxCell>
        <mxCell id="3TISv3wBjOuIwgSo-trB-39" value="нет" style="text;html=1;resizable=0;points=[];autosize=1;align=left;verticalAlign=top;spacingTop=-4;" parent="3TISv3wBjOuIwgSo-trB-1" vertex="1">
          <mxGeometry x="655" y="670" width="30" height="20" as="geometry"/>
        </mxCell>
      </root>
    </mxGraphModel>
  </diagram>
</mxfile>
